<svg viewBox="0 0 140 140" fill="none" xmlns="http://www.w3.org/2000/svg">
<circle cx="70" cy="70" r="70" fill="white"/>
<rect x="64" y="5" width="12" height="130" rx="6" fill="black"/>
<path d="M70.1673 118.54C65.4073 118.54 60.5073 117.933 55.4673 116.72C50.4273 115.507 45.8073 113.687 41.6073 111.26C39.4607 110.047 37.9673 108.553 37.1273 106.78C36.3807 105.007 36.1473 103.187 36.4273 101.32C36.8007 99.4533 37.5473 97.8667 38.6673 96.56C39.8807 95.16 41.374 94.2733 43.1473 93.9C45.014 93.5267 47.0673 93.9467 49.3073 95.16C52.574 96.84 55.8873 98.1467 59.2473 99.08C62.7007 100.013 66.2007 100.48 69.7473 100.48C73.294 100.48 76.3273 99.8733 78.8473 98.66C81.3673 97.4467 83.2807 95.7667 84.5873 93.62C85.894 91.4733 86.5473 88.9533 86.5473 86.06C86.5473 81.58 85.1007 77.9867 82.2073 75.28C79.4073 72.5733 75.5807 71.22 70.7273 71.22C68.3007 71.22 65.8273 71.64 63.3073 72.48C60.8807 73.2267 58.3607 74.58 55.7473 76.54C54.814 77.2867 53.6007 77.9867 52.1073 78.64C50.614 79.2933 49.0273 79.62 47.3473 79.62C44.454 79.62 42.3073 78.9667 40.9073 77.66C39.5073 76.26 38.8073 74.2533 38.8073 71.64V27.68C38.8073 24.6 39.6007 22.2667 41.1873 20.68C42.8673 19.0933 45.2007 18.3 48.1873 18.3H93.1273C96.2073 18.3 98.5407 19.0933 100.127 20.68C101.714 22.1733 102.507 24.3667 102.507 27.26C102.507 30.06 101.714 32.2533 100.127 33.84C98.5407 35.3333 96.2073 36.08 93.1273 36.08H59.6673V62.82H54.3473C56.6807 59.9267 59.7607 57.6867 63.5873 56.1C67.414 54.5133 71.614 53.72 76.1873 53.72C82.4407 53.72 87.9007 55.0733 92.5673 57.78C97.234 60.3933 100.874 64.08 103.487 68.84C106.101 73.6 107.407 79.1067 107.407 85.36C107.407 91.8933 105.914 97.68 102.927 102.72C99.9407 107.667 95.6473 111.54 90.0473 114.34C84.4473 117.14 77.8207 118.54 70.1673 118.54Z" fill="black"/>
</svg>
