<svg  viewBox="0 0 170 160" fill="none" xmlns="http://www.w3.org/2000/svg">
<g clip-path="url(#clip0_1_813)">
<path d="M170 0H0V160H170V0Z" fill="#151718"/>
<path d="M97.43 58.3701C89.05 58.4201 80.54 58.0401 72.58 55.8201C64.62 53.6001 57.58 49.4401 51.18 44.5701C46.99 41.4001 43.18 38.88 37.74 39.26C32.4202 39.5438 27.3328 41.5318 23.23 44.9301C16.31 50.9301 17.36 62.1801 20.12 70.0701C24.28 81.9301 36.94 90.1801 47.69 95.5501C60.12 101.75 73.77 105.36 87.46 107.43C99.46 109.26 114.86 110.58 125.26 102.75C134.81 95.55 137.43 79.11 135.09 68.02C134.523 64.7379 132.777 61.7758 130.18 59.6901C123.47 54.7901 113.47 58.0701 105.93 58.2301C103.13 58.2901 100.29 58.3601 97.43 58.3701Z" fill="#272933"/>
<path d="M56.5699 19.5601V23.8701" stroke="#4A5059" stroke-linecap="round" stroke-linejoin="round"/>
<path d="M54.42 21.71H58.72" stroke="#4A5059" stroke-linecap="round" stroke-linejoin="round"/>
<path d="M138.15 105.27V109.57" stroke="#4A5059" stroke-linecap="round" stroke-linejoin="round"/>
<path d="M136 107.42H140.3" stroke="#4A5059" stroke-linecap="round" stroke-linejoin="round"/>
<path d="M24.08 86.7C24.6212 86.7 25.06 86.2612 25.06 85.72C25.06 85.1788 24.6212 84.74 24.08 84.74C23.5387 84.74 23.1 85.1788 23.1 85.72C23.1 86.2612 23.5387 86.7 24.08 86.7Z" fill="#4A5059"/>
<path d="M107.52 24.01C108.061 24.01 108.5 23.5713 108.5 23.0301C108.5 22.4888 108.061 22.05 107.52 22.05C106.979 22.05 106.54 22.4888 106.54 23.0301C106.54 23.5713 106.979 24.01 107.52 24.01Z" fill="#4A5059"/>
<path d="M80.36 126.87C100.629 126.87 117.06 125.849 117.06 124.59C117.06 123.331 100.629 122.31 80.36 122.31C60.0912 122.31 43.66 123.331 43.66 124.59C43.66 125.849 60.0912 126.87 80.36 126.87Z" fill="#272933"/>
<path d="M52.09 31.24H105.39C106.716 31.24 107.988 31.7668 108.926 32.7045C109.863 33.6421 110.39 34.9139 110.39 36.24V99.65C110.39 100.976 109.863 102.248 108.926 103.186C107.988 104.123 106.716 104.65 105.39 104.65H45.26C43.9339 104.65 42.6622 104.123 41.7245 103.186C40.7868 102.248 40.26 100.976 40.26 99.65V43.19L52.09 31.24Z" fill="#4A5059" stroke="#4A5059" stroke-miterlimit="10"/>
<path d="M110.15 62.15H55.1899V105.27H110.15V62.15Z" fill="#2D333E" stroke="#4A5059" stroke-miterlimit="10"/>
<path d="M40.26 43.19H49.95C50.2319 43.19 50.511 43.1343 50.7713 43.0261C51.0316 42.918 51.2679 42.7594 51.4668 42.5597C51.6656 42.3599 51.823 42.1228 51.93 41.862C52.0369 41.6012 52.0913 41.3219 52.09 41.04V31.24L40.26 43.19Z" fill="#4A5059" stroke="#2D333E" stroke-miterlimit="10"/>
<path d="M109.88 48.37H55.5199C53.4047 48.37 51.6899 50.0847 51.6899 52.2V63.83C51.6899 65.9452 53.4047 67.66 55.5199 67.66H109.88C111.995 67.66 113.71 65.9452 113.71 63.83V52.2C113.71 50.0847 111.995 48.37 109.88 48.37Z" fill="#2D333E" stroke="#4A5059" stroke-miterlimit="10"/>
<path d="M62.25 61.38C64.0947 61.38 65.59 59.8846 65.59 58.04C65.59 56.1953 64.0947 54.7 62.25 54.7C60.4054 54.7 58.91 56.1953 58.91 58.04C58.91 59.8846 60.4054 61.38 62.25 61.38Z" fill="#2D333E" stroke="#4A5059" stroke-miterlimit="10"/>
<path d="M72.75 61.38C74.5947 61.38 76.09 59.8846 76.09 58.04C76.09 56.1953 74.5947 54.7 72.75 54.7C70.9054 54.7 69.41 56.1953 69.41 58.04C69.41 59.8846 70.9054 61.38 72.75 61.38Z" fill="#2D333E" stroke="#4A5059" stroke-miterlimit="10"/>
<path d="M83.24 61.38C85.0847 61.38 86.58 59.8846 86.58 58.04C86.58 56.1953 85.0847 54.7 83.24 54.7C81.3954 54.7 79.9 56.1953 79.9 58.04C79.9 59.8846 81.3954 61.38 83.24 61.38Z" fill="#2D333E" stroke="#4A5059" stroke-miterlimit="10"/>
<path d="M109.88 69.76H55.5199C53.4047 69.76 51.6899 71.4748 51.6899 73.59V85.22C51.6899 87.3353 53.4047 89.05 55.5199 89.05H109.88C111.995 89.05 113.71 87.3353 113.71 85.22V73.59C113.71 71.4748 111.995 69.76 109.88 69.76Z" fill="#2D333E" stroke="#4A5059" stroke-miterlimit="10"/>
<path d="M62.25 82.77C64.0947 82.77 65.59 81.2746 65.59 79.43C65.59 77.5853 64.0947 76.09 62.25 76.09C60.4054 76.09 58.91 77.5853 58.91 79.43C58.91 81.2746 60.4054 82.77 62.25 82.77Z" fill="#2D333E" stroke="#4A5059" stroke-miterlimit="10"/>
<path d="M72.75 82.77C74.5947 82.77 76.09 81.2746 76.09 79.43C76.09 77.5853 74.5947 76.09 72.75 76.09C70.9054 76.09 69.41 77.5853 69.41 79.43C69.41 81.2746 70.9054 82.77 72.75 82.77Z" fill="#2D333E" stroke="#4A5059" stroke-miterlimit="10"/>
<path d="M83.24 82.77C85.0847 82.77 86.58 81.2746 86.58 79.43C86.58 77.5853 85.0847 76.09 83.24 76.09C81.3954 76.09 79.9 77.5853 79.9 79.43C79.9 81.2746 81.3954 82.77 83.24 82.77Z" fill="#2D333E" stroke="#4A5059" stroke-miterlimit="10"/>
<path d="M109.88 91.14H55.5199C53.4047 91.14 51.6899 92.8548 51.6899 94.97V106.6C51.6899 108.715 53.4047 110.43 55.5199 110.43H109.88C111.995 110.43 113.71 108.715 113.71 106.6V94.97C113.71 92.8548 111.995 91.14 109.88 91.14Z" fill="#2D333E" stroke="#4A5059" stroke-miterlimit="10"/>
<path d="M62.25 104.15C64.0947 104.15 65.59 102.655 65.59 100.81C65.59 98.9653 64.0947 97.47 62.25 97.47C60.4054 97.47 58.91 98.9653 58.91 100.81C58.91 102.655 60.4054 104.15 62.25 104.15Z" fill="#2D333E" stroke="#4A5059" stroke-miterlimit="10"/>
<path d="M72.75 104.15C74.5947 104.15 76.09 102.655 76.09 100.81C76.09 98.9653 74.5947 97.47 72.75 97.47C70.9054 97.47 69.41 98.9653 69.41 100.81C69.41 102.655 70.9054 104.15 72.75 104.15Z" fill="#2D333E" stroke="#4A5059" stroke-miterlimit="10"/>
<path d="M83.24 104.15C85.0847 104.15 86.58 102.655 86.58 100.81C86.58 98.9653 85.0847 97.47 83.24 97.47C81.3954 97.47 79.9 98.9653 79.9 100.81C79.9 102.655 81.3954 104.15 83.24 104.15Z" fill="#2D333E" stroke="#4A5059" stroke-miterlimit="10"/>
<path d="M114.8 72.73C126.249 72.73 135.53 63.4489 135.53 52C135.53 40.5512 126.249 31.27 114.8 31.27C103.351 31.27 94.0699 40.5512 94.0699 52C94.0699 63.4489 103.351 72.73 114.8 72.73Z" fill="#2D333E" stroke="#4A5059" stroke-miterlimit="10"/>
<path d="M129.52 67.04L135.04 72.57" stroke="#4A5059" stroke-miterlimit="10"/>
<path d="M134.414 69.89L132.7 71.6827C131.929 72.4891 131.958 73.7678 132.764 74.5387L147.655 88.7734C148.462 89.5443 149.74 89.5155 150.511 88.7091L152.225 86.9165C152.996 86.11 152.967 84.8314 152.16 84.0605L137.27 69.8257C136.463 69.0548 135.185 69.0836 134.414 69.89Z" fill="#2D333E" stroke="#4A5059" stroke-miterlimit="10"/>
</g>
<defs>
<clipPath id="clip0_1_813">
<rect width="170" height="160" fill="white"/>
</clipPath>
</defs>
</svg>
